# xmcd
#
# Track frame offsets: 
#        150
#        17813
#        33345
#        46283
#        59901
#        74331
#        90482
#        111814
#        129264
#        143023
#        161883
#        173372
#        187293
#        194110
#        212375
#        222560
#        230726
#        242124
#
# Disc length: 3396 seconds
#
# Revision: 7
# Processed by: cddbd v1.5.2PL0 Copyright (c) Steve Scherf et al.
# Submitted via: ExactAudioCopy v0.99pb5
#
DISCID=110d4212
DTITLE=Edvard Grieg - Piano Works Vol.2 - Lyrische Stücke II  (Håkon A
DTITLE=ustbø, piano)
DYEAR=2001
DGENRE=Classical
TTITLE0=Book V, Op.54 - Hirtenknabe
TTITLE1=Book V, Op.54 - Norwegischer Bauernmarsch
TTITLE2=Book V, Op.54 - Zug der Zwerge
TTITLE3=Book V, Op.54 - Notturno
TTITLE4=Book V, Op.54 - Scherzo
TTITLE5=Book V, Op.54 - Glockengeläute
TTITLE6=Book VI, Op.57 - Entschwundene Tage
TTITLE7=Book VI, Op.57 - Gade
TTITLE8=Book VI, Op.57 - Illusion
TTITLE9=Book VI, Op.57 - Geheimnis
TTITLE10=Book VI, Op.57 - Sie tanzt
TTITLE11=Book VI, Op.57 - Heimweh
TTITLE12=Book VII, Op.62 - Sylphide
TTITLE13=Book VII, Op.62 - Dank
TTITLE14=Book VII, Op.62 - Französische Serenade
TTITLE15=Book VII, Op.62 - Bächlein
TTITLE16=Book VII, Op.62 - Traumgesicht
TTITLE17=Book VII, Op.62 - Heimwärts
EXTD=YEAR: 2001
EXTT0=
EXTT1=
EXTT2=
EXTT3=
EXTT4=
EXTT5=
EXTT6=
EXTT7=
EXTT8=
EXTT9=
EXTT10=
EXTT11=
EXTT12=
EXTT13=
EXTT14=
EXTT15=
EXTT16=
EXTT17=
PLAYORDER=
